<svg width="26" height="28" viewBox="0 0 26 28" fill="none" xmlns="http://www.w3.org/2000/svg">
<mask id="path-1-outside-1_916_2537" maskUnits="userSpaceOnUse" x="-1" y="0" width="27" height="28" fill="black">
<rect fill="white" x="-1" width="27" height="28"/>
<path fill-rule="evenodd" clip-rule="evenodd" d="M13.9727 3.6249C13.1838 2.7917 11.8571 2.7917 11.0681 3.6249L3.5517 11.5632C2.34463 12.8381 3.24836 14.9383 5.00397 14.9383H5.32598V23.7022C5.32598 24.2545 5.77369 24.7022 6.32598 24.7022H18.7149C19.2672 24.7022 19.7149 24.2545 19.7149 23.7022V14.9383H20.0369C21.7925 14.9383 22.6962 12.8381 21.4891 11.5632L13.9727 3.6249Z"/>
</mask>
<path fill-rule="evenodd" clip-rule="evenodd" d="M13.9727 3.6249C13.1838 2.7917 11.8571 2.7917 11.0681 3.6249L3.5517 11.5632C2.34463 12.8381 3.24836 14.9383 5.00397 14.9383H5.32598V23.7022C5.32598 24.2545 5.77369 24.7022 6.32598 24.7022H18.7149C19.2672 24.7022 19.7149 24.2545 19.7149 23.7022V14.9383H20.0369C21.7925 14.9383 22.6962 12.8381 21.4891 11.5632L13.9727 3.6249Z" fill="#FFBDA4"/>
<path d="M11.0681 3.6249L13.2466 5.68755V5.68755L11.0681 3.6249ZM13.9727 3.6249L11.7943 5.68755L11.7943 5.68755L13.9727 3.6249ZM3.5517 11.5632L1.37328 9.50059L1.37328 9.50059L3.5517 11.5632ZM5.32598 14.9383H8.32598V11.9383H5.32598V14.9383ZM19.7149 14.9383V11.9383H16.7149V14.9383H19.7149ZM21.4891 11.5632L19.3107 13.6259L19.3107 13.6259L21.4891 11.5632ZM13.2466 5.68755C12.8521 6.10415 12.1887 6.10415 11.7943 5.68755L16.1511 1.56226C14.1788 -0.520754 10.862 -0.520752 8.88973 1.56226L13.2466 5.68755ZM5.73011 13.6259L13.2466 5.68755L8.88973 1.56226L1.37328 9.50059L5.73011 13.6259ZM5.00397 11.9383C5.88179 11.9383 6.33364 12.9885 5.73011 13.6259L1.37328 9.50059C-1.64438 12.6876 0.614929 17.9383 5.00397 17.9383V11.9383ZM5.32598 11.9383H5.00397V17.9383H5.32598V11.9383ZM8.32598 23.7022V14.9383H2.32598V23.7022H8.32598ZM6.32598 21.7022C7.43055 21.7022 8.32598 22.5977 8.32598 23.7022H2.32598C2.32598 25.9114 4.11684 27.7022 6.32598 27.7022V21.7022ZM18.7149 21.7022H6.32598V27.7022H18.7149V21.7022ZM16.7149 23.7022C16.7149 22.5977 17.6103 21.7022 18.7149 21.7022V27.7022C20.924 27.7022 22.7149 25.9114 22.7149 23.7022H16.7149ZM16.7149 14.9383V23.7022H22.7149V14.9383H16.7149ZM20.0369 11.9383H19.7149V17.9383H20.0369V11.9383ZM19.3107 13.6259C18.7072 12.9885 19.1591 11.9383 20.0369 11.9383V17.9383C24.4259 17.9383 26.6852 12.6876 23.6676 9.50059L19.3107 13.6259ZM11.7943 5.68755L19.3107 13.6259L23.6676 9.50059L16.1511 1.56226L11.7943 5.68755Z" fill="white" mask="url(#path-1-outside-1_916_2537)"/>
</svg>
