<svg width="24" height="28" viewBox="0 0 24 28" fill="none" xmlns="http://www.w3.org/2000/svg">
<mask id="path-1-outside-1_916_2497" maskUnits="userSpaceOnUse" x="0" y="0" width="24" height="28" fill="black">
<rect fill="white" width="24" height="28"/>
<path fill-rule="evenodd" clip-rule="evenodd" d="M11.9074 12.5926C14.5563 12.5926 16.7037 10.4452 16.7037 7.7963C16.7037 5.14737 14.5563 3 11.9074 3C9.25849 3 7.11111 5.14737 7.11111 7.7963C7.11111 10.4452 9.25849 12.5926 11.9074 12.5926ZM7.7963 14.6481C5.14737 14.6481 3 16.7955 3 19.4444C3 22.0934 5.14737 24.2407 7.79629 24.2407H16.0185C18.6674 24.2407 20.8148 22.0934 20.8148 19.4444C20.8148 16.7955 18.6674 14.6481 16.0185 14.6481H7.7963Z"/>
</mask>
<path fill-rule="evenodd" clip-rule="evenodd" d="M11.9074 12.5926C14.5563 12.5926 16.7037 10.4452 16.7037 7.7963C16.7037 5.14737 14.5563 3 11.9074 3C9.25849 3 7.11111 5.14737 7.11111 7.7963C7.11111 10.4452 9.25849 12.5926 11.9074 12.5926ZM7.7963 14.6481C5.14737 14.6481 3 16.7955 3 19.4444C3 22.0934 5.14737 24.2407 7.79629 24.2407H16.0185C18.6674 24.2407 20.8148 22.0934 20.8148 19.4444C20.8148 16.7955 18.6674 14.6481 16.0185 14.6481H7.7963Z" fill="#96C7C9"/>
<path d="M13.7037 7.7963C13.7037 8.78836 12.8995 9.59259 11.9074 9.59259V15.5926C16.2132 15.5926 19.7037 12.1021 19.7037 7.7963H13.7037ZM11.9074 6C12.8995 6 13.7037 6.80423 13.7037 7.7963H19.7037C19.7037 3.49052 16.2132 0 11.9074 0V6ZM10.1111 7.7963C10.1111 6.80423 10.9153 6 11.9074 6V0C7.60163 0 4.11111 3.49052 4.11111 7.7963H10.1111ZM11.9074 9.59259C10.9153 9.59259 10.1111 8.78836 10.1111 7.7963H4.11111C4.11111 12.1021 7.60163 15.5926 11.9074 15.5926V9.59259ZM6 19.4444C6 18.4524 6.80423 17.6481 7.7963 17.6481V11.6481C3.49052 11.6481 0 15.1387 0 19.4444H6ZM7.79629 21.2407C6.80423 21.2407 6 20.4365 6 19.4444H0C0 23.7502 3.49052 27.2407 7.79629 27.2407V21.2407ZM16.0185 21.2407H7.79629V27.2407H16.0185V21.2407ZM17.8148 19.4444C17.8148 20.4365 17.0106 21.2407 16.0185 21.2407V27.2407C20.3243 27.2407 23.8148 23.7502 23.8148 19.4444H17.8148ZM16.0185 17.6481C17.0106 17.6481 17.8148 18.4524 17.8148 19.4444H23.8148C23.8148 15.1387 20.3243 11.6481 16.0185 11.6481V17.6481ZM7.7963 17.6481H16.0185V11.6481H7.7963V17.6481Z" fill="white" mask="url(#path-1-outside-1_916_2497)"/>
</svg>
