<svg width="35" height="26" viewBox="0 0 35 26" fill="none" xmlns="http://www.w3.org/2000/svg">
<mask id="path-1-outside-1_916_2516" maskUnits="userSpaceOnUse" x="0" y="0" width="35" height="26" fill="black">
<rect fill="white" width="35" height="26"/>
<path fill-rule="evenodd" clip-rule="evenodd" d="M20.8646 13.6094C24.4292 17.5014 31.7778 18.2128 31.7778 12.9352C31.7778 7.44813 25.3357 3 17.3889 3C9.44213 3 3 7.44813 3 12.9352C3 18.4222 9.44213 22.8704 17.3889 22.8704C18.9184 22.8704 20.3921 22.7056 21.7749 22.4004C22.7976 22.1746 23.2041 20.991 22.6278 20.1165L19.2048 14.9222C18.4902 13.8378 19.9741 12.6642 20.8646 13.6094Z"/>
</mask>
<path fill-rule="evenodd" clip-rule="evenodd" d="M20.8646 13.6094C24.4292 17.5014 31.7778 18.2128 31.7778 12.9352C31.7778 7.44813 25.3357 3 17.3889 3C9.44213 3 3 7.44813 3 12.9352C3 18.4222 9.44213 22.8704 17.3889 22.8704C18.9184 22.8704 20.3921 22.7056 21.7749 22.4004C22.7976 22.1746 23.2041 20.991 22.6278 20.1165L19.2048 14.9222C18.4902 13.8378 19.9741 12.6642 20.8646 13.6094Z" fill="#DBD66B"/>
<path d="M22.6278 20.1165L20.1228 21.7672L22.6278 20.1165ZM19.2048 14.9222L21.7098 13.2714L19.2048 14.9222ZM17.3889 6C20.831 6 23.8163 6.96835 25.8588 8.37864C27.9136 9.79744 28.7778 11.458 28.7778 12.9352H34.7778C34.7778 8.92529 32.4209 5.61829 29.2679 3.44126C26.1027 1.25572 21.8936 0 17.3889 0V6ZM6 12.9352C6 11.458 6.86417 9.79744 8.91898 8.37864C10.9615 6.96835 13.9468 6 17.3889 6V0C12.8842 0 8.6751 1.25572 5.50984 3.44126C2.3569 5.61829 0 8.92529 0 12.9352H6ZM17.3889 19.8704C13.9468 19.8704 10.9615 18.902 8.91898 17.4917C6.86417 16.0729 6 14.4123 6 12.9352H0C0 16.9451 2.3569 20.2521 5.50984 22.4291C8.6751 24.6147 12.8842 25.8704 17.3889 25.8704V19.8704ZM21.1283 19.4709C19.9606 19.7286 18.7038 19.8704 17.3889 19.8704V25.8704C19.1329 25.8704 20.8236 25.6826 22.4216 25.3298L21.1283 19.4709ZM25.1328 18.4657L21.7098 13.2714L16.6998 16.5729L20.1228 21.7672L25.1328 18.4657ZM22.4216 25.3298C25.75 24.5951 26.7205 20.8752 25.1328 18.4657L20.1228 21.7672C19.8791 21.3974 19.8212 20.918 19.9812 20.4776C20.15 20.0127 20.5694 19.5942 21.1283 19.4709L22.4216 25.3298ZM21.7098 13.2714C21.9598 13.6508 22.0908 14.1897 21.9722 14.749C21.8649 15.2548 21.588 15.625 21.2938 15.8577C20.9996 16.0904 20.5755 16.2746 20.0586 16.2625C19.487 16.249 18.9927 15.9974 18.6812 15.6667L23.0481 11.5521C19.642 7.93709 13.9669 12.4257 16.6998 16.5729L21.7098 13.2714ZM28.7778 12.9352C28.7778 13.2454 28.7246 13.3952 28.704 13.4426C28.6869 13.4819 28.6763 13.4907 28.6641 13.5007C28.6203 13.5369 28.3494 13.7123 27.664 13.7109C26.2395 13.708 24.3054 12.9244 23.077 11.5832L18.6523 15.6356C20.9885 18.1864 24.5109 19.7045 27.6518 19.7109C29.2492 19.7141 31.0382 19.3211 32.4836 18.1279C34.0181 16.8613 34.7778 15.0124 34.7778 12.9352H28.7778Z" fill="white" mask="url(#path-1-outside-1_916_2516)"/>
</svg>
